<!-- icon666.com - MILLIONS vector ICONS FREE --><svg xmlns="http://www.w3.org/2000/svg" viewBox="0 0 512 512"><g id="Outline"><rect x="48" y="88" width="16" height="16"></rect><rect x="48" y="120" width="16" height="96"></rect><path d="M463.179,275.327l-21.74-3.917L408.6,265.4l-.6-.107V237.257A79.382,79.382,0,0,0,446.4,184H448a31.989,31.989,0,0,0,16-59.695V104a88.1,88.1,0,0,0-88-88H360a87.022,87.022,0,0,0-67.8,32H230.246l-6.485-25.94A8,8,0,0,0,216,16H152a8,8,0,0,0-7.761,6.06L137.754,48H24a8,8,0,0,0-8,8V264a8,8,0,0,0,8,8H48v24a8,8,0,0,0,8,8H73.754L48.239,406.06A8,8,0,0,0,56,416H88a8,8,0,0,0,7.761-6.06L106.246,368h94.627c.044,2.515.111,5.171.2,8H200a8,8,0,0,0-8,8v48a8,8,0,0,0,8,8h3.968l2.281,48.377A8,8,0,0,0,214.24,496h32a8,8,0,0,0,7.638-5.645A31.818,31.818,0,0,0,272,496h24a7.97,7.97,0,0,0,1.833-.213l70.607-16.618,69.706,16.613A7.978,7.978,0,0,0,440,496h24a32.036,32.036,0,0,0,32-32V314.72A40.055,40.055,0,0,0,463.179,275.327ZM122.246,304H160v16H118.246ZM176,304h16v16H176Zm28.783-144h7.175a43.988,43.988,0,0,1,37.375,20.743A28.218,28.218,0,0,0,238.2,185.1l-.716.478a12.954,12.954,0,0,1-14.411,0,28.985,28.985,0,0,0-20.367-4.52c.441-1.3.928-2.579,1.473-3.85A23.759,23.759,0,0,0,204.783,160Zm9.41,38.9a28.915,28.915,0,0,0,32.16,0l.715-.478a12.54,12.54,0,0,1,8.26-1.962,44.166,44.166,0,0,1-5.6,30.246L241.745,240H218.119l-6.53-8.163a53.551,53.551,0,0,1-11.757-32.967A13.006,13.006,0,0,1,214.193,198.9Zm180.586,79.164L368,320.906l-26.779-42.847A7.993,7.993,0,0,0,344,272V244.3a79.7,79.7,0,0,0,48,0V272A7.993,7.993,0,0,0,394.779,278.059Zm-121.964-2.731a39.587,39.587,0,0,0-15.421,6.331q-.35-4.855-.748-9.659h34.642ZM221.453,256H239.1c2.144,20.584,3.573,42.055,4.258,64H217.2C217.88,298.052,219.309,276.582,221.453,256Zm38.306,104.121c.153-10.158.1-20.724-.161-32.3,0-.214-.025-.424-.046-.634q-.278-11.87-.845-23.556c.159-.3.325-.6.51-.873.069-.1.147-.228.211-.335a17.774,17.774,0,0,1,.966-1.507c.075-.1.147-.195.217-.294a23.421,23.421,0,0,1,15.048-9.547L288,288.85v52.333a70.4,70.4,0,0,0-14.515,40.16L269,377.753A8,8,0,0,0,264,376h-4.55C259.6,371.282,259.7,366.13,259.759,360.121Zm30.783,34.868a54.4,54.4,0,0,1,11.58-45.84A8,8,0,0,0,304,344V285.949l20.895-3.822,36.321,58.113a8,8,0,0,0,13.568,0l36.321-58.113L432,285.949V344a8,8,0,0,0,1.926,5.206,39.131,39.131,0,0,1,4.2,5.852,8.069,8.069,0,0,0,.484.737,53.267,53.267,0,0,1,7.015,18.394,8.252,8.252,0,0,0,.111.86,49.6,49.6,0,0,1,.82,8.951H440a8,8,0,0,0-5,1.754l-38.167,30.534-15.97,1.67-73.612-9.6ZM442.807,400H480v30.889l-65.178-8.5ZM480,314.72V384H462.552a65.561,65.561,0,0,0-.9-10.771,8.143,8.143,0,0,0-.314-2.021,69.2,69.2,0,0,0-9.236-24,8.094,8.094,0,0,0-.534-.835A53.461,53.461,0,0,0,448,341.156V288.85l12.311,2.218A24.046,24.046,0,0,1,480,314.72Zm-83.578-89.4a64,64,0,0,1-92.191-51.941,111.146,111.146,0,0,0,17.958-5.451,109.669,109.669,0,0,0,16.876-8.267,115.665,115.665,0,0,0,42.3-44.192l16.39-30.432A112.226,112.226,0,0,0,432,131.913V168A63.645,63.645,0,0,1,396.422,225.325ZM448,168V136a16,16,0,0,1,0,32ZM302.483,60.8A71.255,71.255,0,0,1,360,32h16a72.081,72.081,0,0,1,72,72v16h-5.24a96.344,96.344,0,0,1-34.755-56.771l-.16-.8a8,8,0,0,0-14.888-2.222L367.286,107.87a99.641,99.641,0,0,1-36.426,38.06,93.521,93.521,0,0,1-14.437,7.078l-.1.038A92.478,92.478,0,0,1,294.9,158.8c-.079.011-.157.023-.236.037-2.148.363-4.374.642-6.665.836V104a63.8,63.8,0,0,1,.491-8.237q.009-.06.015-.12A71.024,71.024,0,0,1,302.483,60.8ZM209.754,32l4,16H198.246l-4-16Zm-51.508,0h15.508l-4,16H154.246ZM32,64H281.641a87.485,87.485,0,0,0-9.021,29.738A78.792,78.792,0,0,0,272,104v20.338A31.98,31.98,0,0,0,288,184h1.6A79.37,79.37,0,0,0,328,237.258V256H255.17c-.212-2.07-.425-4.138-.651-6.191l8.925-14.875A60.042,60.042,0,0,0,211.958,144H182.274a8,8,0,0,0,0,16,7.825,7.825,0,0,1,7.193,10.908,69.515,69.515,0,0,0,9.628,70.924l6.87,8.588q-.3,2.778-.586,5.58H32ZM64,272H203.9q-.659,7.938-1.192,16H64ZM81.754,400H66.246l24-96h15.508Zm32.492-64h86.588c-.068,5.022-.114,10.05-.114,15.04,0,.316,0,.642,0,.96H110.246Zm102.577,0h26.925c.124,8.383-.152,35.258-.307,40H217.078C216.889,369.989,216.754,341.019,216.823,336Zm5.049,144-1.886-40h20.508l-1.886,40Zm73.2,0H272a16.019,16.019,0,0,1-16-16V451.04h-.009l.349-7.387,10,10a8,8,0,0,0,3.814,2.128l23.989,5.677,39.595,9.437ZM464,480H440.94L297.843,445.9l-21.791-5.157-14.4-14.395A8,8,0,0,0,256,424H208V392h53.193L299,422.247a7.993,7.993,0,0,0,3.962,1.686L480,447.024V464A16.019,16.019,0,0,1,464,480Z"></path><circle cx="404" cy="140" r="12"></circle><path d="M368,184a8.009,8.009,0,0,1-8-8H344a24,24,0,0,0,48,0H376A8.009,8.009,0,0,1,368,184Z"></path></g></svg>